<?xml version="1.0" encoding="UTF-8"?>
<svg width="168px" height="23px" viewBox="0 0 168 23" version="1.1" xmlns="http://www.w3.org/2000/svg" xmlns:xlink="http://www.w3.org/1999/xlink">
    <!-- Generator: Sketch 56.2 (81672) - https://sketch.com -->
    <title>Logo</title>
    <desc>Created with Sketch.</desc>
    <g id="Logo" stroke="none" stroke-width="1" fill="none" fill-rule="evenodd">
        <g id="Group" fill="#0072FF">
            <path d="M35.3227035,9.10275756 L32.710796,9.10275756 L32.710796,6.18356683 L35.3227035,6.18356683 L35.3227035,4.95443389 C35.3227035,3.54092395 35.7631384,2.383502 36.6440214,1.48213334 C37.5249044,0.580764679 38.8564517,0.130087108 40.6387034,0.130087108 C41.0279308,0.130087108 41.4171523,0.145451116 41.8063797,0.176179593 C42.1956071,0.20690807 42.574586,0.23251475 42.9433277,0.253000402 L42.9433277,3.51020269 C42.4311864,3.44874574 41.8985674,3.41801772 41.3454549,3.41801772 C40.751371,3.41801772 40.3263001,3.55629379 40.0702294,3.83285009 C39.8141588,4.10940638 39.6861254,4.57544796 39.6861254,5.23098881 L39.6861254,6.18356683 L42.6975011,6.18356683 L42.6975011,9.10275756 L39.6861254,9.10275756 L39.6861254,22.0701101 L35.3227035,22.0701101 L35.3227035,9.10275756 Z M45.3401369,6.18356683 L49.7035588,6.18356683 L49.7035588,22.0701101 L45.3401369,22.0701101 L45.3401369,6.18356683 Z M49.7035588,3.72530095 L45.3401369,3.72530095 L45.3401369,0.130087108 L49.7035588,0.130087108 L49.7035588,3.72530095 Z M52.8477602,6.18356683 L56.9960839,6.18356683 L56.9960839,8.39600612 L57.0882688,8.39600612 C57.6413814,7.47415181 58.3583685,6.80325679 59.2392515,6.38330094 C60.1201345,5.96334508 61.0214896,5.7533703 61.943344,5.7533703 C63.1110261,5.7533703 64.0687159,5.91213172 64.8164422,6.22965932 C65.5641685,6.54718691 66.1531221,6.98762181 66.5833208,7.55097723 C67.0135195,8.11433264 67.3156783,8.80059167 67.4898063,9.6097749 C67.6639344,10.4189581 67.7509971,11.3151919 67.7509971,12.2985032 L67.7509971,22.0701101 L63.3875752,22.0701101 L63.3875752,13.0974396 C63.3875752,11.7863579 63.1827217,10.8081827 62.7730087,10.1628847 C62.3632957,9.5175867 61.6360659,9.19494253 60.5912977,9.19494253 C59.4031299,9.19494253 58.5427455,9.54831472 58.0101185,10.2550697 C57.4774916,10.9618247 57.2111821,12.1243679 57.2111821,13.7427344 L57.2111821,22.0701101 L52.8477602,22.0701101 L52.8477602,6.18356683 Z M74.1524007,16.9077517 C74.1524007,17.3789217 74.2497061,17.7835073 74.4443198,18.1215205 C74.6389335,18.4595338 74.889879,18.7360859 75.1971637,18.9511852 C75.5044485,19.1662846 75.8578207,19.325046 76.2572909,19.4274743 C76.6567611,19.5299025 77.0715893,19.5811159 77.501788,19.5811159 C77.8090728,19.5811159 78.1317169,19.5452665 78.4697302,19.4735667 C78.8077434,19.401867 79.1150236,19.2891976 79.3915799,19.1355552 C79.6681362,18.9819128 79.8985963,18.7770594 80.0829672,18.5209887 C80.267338,18.2649181 80.3595221,17.9422739 80.3595221,17.5530465 C80.3595221,16.8975057 79.9242085,16.4058574 79.0535683,16.078087 C78.1829281,15.7503166 76.9691715,15.4225511 75.412262,15.0947806 C74.7772068,14.9513811 74.1575251,14.782377 73.5531984,14.5877633 C72.9488717,14.3931496 72.4111314,14.1370828 71.9399614,13.8195552 C71.4687915,13.5020276 71.0898126,13.1025634 70.8030135,12.6211506 C70.5162144,12.1397378 70.3728169,11.5507841 70.3728169,10.854272 C70.3728169,9.82998943 70.5725491,8.99009032 70.9720193,8.33454948 C71.3714895,7.67900863 71.8989871,7.16175369 72.5545279,6.78276914 C73.2100688,6.40378459 73.9475411,6.13747512 74.7669672,5.98383273 C75.5863933,5.83019034 76.4262924,5.7533703 77.2866897,5.7533703 C78.1470871,5.7533703 78.9818649,5.83531168 79.7910481,5.99919689 C80.6002313,6.1630821 81.3223397,6.43963425 81.9573949,6.82886163 C82.5924501,7.218089 83.1199477,7.73534394 83.5399036,8.38064196 C83.9598594,9.02593998 84.2108049,9.84023241 84.2927475,10.8235437 L80.1444238,10.8235437 C80.0829669,9.98363197 79.765444,9.41516367 79.1918458,9.11812172 C78.6182475,8.82107978 77.9422312,8.67256103 77.1637764,8.67256103 C76.9179486,8.67256103 76.6516391,8.68792504 76.36484,8.71865352 C76.0780409,8.749382 75.8168528,8.81595937 75.5812678,8.91838762 C75.3456828,9.02081588 75.1459507,9.16933462 74.9820655,9.36394831 C74.8181803,9.558562 74.7362389,9.81975014 74.7362389,10.1475206 C74.7362389,10.5367479 74.8796363,10.8542708 75.1664354,11.1000986 C75.4532345,11.3459264 75.8270921,11.5456585 76.2880192,11.6993009 C76.7489464,11.8529433 77.276444,11.9912194 77.8705279,12.1141333 C78.4646118,12.2370472 79.0689294,12.3702019 79.683499,12.5136015 C80.3185542,12.657001 80.9382358,12.8311265 81.5425625,13.035983 C82.1468892,13.2408395 82.6846295,13.5122703 83.1557995,13.8502835 C83.6269695,14.1882968 84.0059484,14.6082463 84.2927475,15.1101448 C84.5795466,15.6120433 84.722944,16.2317249 84.722944,16.9692084 C84.722944,18.0139766 84.5129692,18.8897251 84.0930134,19.59648 C83.6730575,20.303235 83.1250746,20.8717033 82.4490481,21.301902 C81.7730216,21.7321007 80.9996998,22.0342595 80.1290597,22.2083875 C79.2584195,22.3825156 78.3724283,22.4695783 77.4710597,22.4695783 C76.5492054,22.4695783 75.6478502,22.3773942 74.7669672,22.1930234 C73.8860842,22.0086525 73.1025198,21.7013723 72.4162505,21.2711737 C71.7299811,20.840975 71.1666342,20.2725067 70.7261927,19.5657517 C70.2857512,18.8589967 70.0450484,17.9730056 70.0040771,16.9077517 L74.1524007,16.9077517 Z M92.5071222,6.18356683 L95.7028679,6.18356683 L95.7028679,9.10275756 L92.5071222,9.10275756 L92.5071222,16.9692084 C92.5071222,17.7066918 92.6300343,18.1983401 92.8758621,18.4441679 C93.1216899,18.6899957 93.6133382,18.8129078 94.3508216,18.8129078 C94.5966494,18.8129078 94.8322309,18.8026651 95.0575731,18.7821795 C95.2829152,18.7616938 95.4980113,18.7309658 95.7028679,18.6899945 L95.7028679,22.0701101 C95.3341261,22.131567 94.9244192,22.1725377 94.4737349,22.1930234 C94.0230506,22.213509 93.5826157,22.2237517 93.152417,22.2237517 C92.4763905,22.2237517 91.8362235,22.1776597 91.2318968,22.0854742 C90.6275701,21.9932888 90.0949511,21.814042 89.634024,21.5477286 C89.1730968,21.2814151 88.809482,20.9024362 88.5431685,20.4107806 C88.276855,19.919125 88.1437003,19.2738366 88.1437003,18.4748962 L88.1437003,9.10275756 L85.5010645,9.10275756 L85.5010645,6.18356683 L88.1437003,6.18356683 L88.1437003,1.42067669 L92.5071222,1.42067669 L92.5071222,6.18356683 Z M97.495023,6.18356683 L101.643347,6.18356683 L101.643347,9.13348589 L101.704803,9.13348589 C101.90966,8.64183025 102.186212,8.18603135 102.534468,7.76607549 C102.882724,7.34611964 103.282188,6.98762612 103.732873,6.69058417 C104.183557,6.39354222 104.664963,6.1630821 105.177104,5.99919689 C105.689245,5.83531168 106.221864,5.7533703 106.774977,5.7533703 C107.061776,5.7533703 107.379299,5.80458366 107.727555,5.90701192 L107.727555,9.96315062 C107.522698,9.92217932 107.276874,9.88632997 106.990075,9.85560149 C106.703276,9.82487301 106.426724,9.809509 106.16041,9.809509 C105.36147,9.809509 104.685453,9.94266374 104.132341,10.2089772 C103.579228,10.4752907 103.133672,10.8389055 102.795659,11.2998327 C102.457646,11.7607598 102.216943,12.2985001 102.073543,12.9130697 C101.930144,13.5276392 101.858445,14.1934129 101.858445,14.9104107 L101.858445,22.0701101 L97.495023,22.0701101 L97.495023,6.18356683 Z M119.291317,12.4214165 C119.08646,11.3151913 118.722845,10.4752922 118.200461,9.90169397 C117.678077,9.32809573 116.88427,9.04130092 115.819016,9.04130092 C115.122504,9.04130092 114.543793,9.15909164 114.082866,9.39467664 C113.621939,9.63026163 113.253203,9.92217778 112.976646,10.2704339 C112.70009,10.6186899 112.505479,10.9874261 112.392808,11.3766535 C112.280137,11.7658809 112.21356,12.1141317 112.193074,12.4214165 L119.291317,12.4214165 Z M112.193074,15.1869656 C112.254531,16.6004756 112.613024,17.6247428 113.268565,18.259798 C113.924106,18.8948532 114.866432,19.212376 116.095571,19.212376 C116.976454,19.212376 117.734412,18.9921585 118.369467,18.551717 C119.004522,18.1112755 119.393744,17.6452339 119.537143,17.1535783 L123.378184,17.1535783 C122.763614,19.0587439 121.821288,20.4210193 120.551178,21.2404453 C119.281068,22.0598714 117.744667,22.4695783 115.941929,22.4695783 C114.692305,22.4695783 113.565611,22.2698462 112.561814,21.870376 C111.558017,21.4709058 110.707875,20.9024375 110.011363,20.164954 C109.314851,19.4274706 108.777111,18.5466008 108.398126,17.5223182 C108.019141,16.4980356 107.829652,15.3713417 107.829652,14.1422026 C107.829652,12.9540348 108.024263,11.8478262 108.41349,10.8235437 C108.802718,9.79926111 109.355822,8.91326997 110.07282,8.1655437 C110.789817,7.41781742 111.645081,6.82886378 112.638635,6.3986651 C113.632189,5.96846642 114.733276,5.7533703 115.941929,5.7533703 C117.293982,5.7533703 118.47189,6.01455844 119.475687,6.53694255 C120.479484,7.05932666 121.304019,7.7609497 121.949317,8.64183271 C122.594615,9.52271572 123.060656,10.5264976 123.347455,11.6532084 C123.634255,12.7799192 123.736681,13.9578265 123.654739,15.1869656 L112.193074,15.1869656 Z M125.754177,11.0693703 C125.815634,10.0450877 126.071701,9.19494591 126.522385,8.51891942 C126.973069,7.84289292 127.546659,7.3000313 128.243171,6.89031827 C128.939683,6.48060524 129.723248,6.18868909 130.593888,6.01456105 C131.464528,5.84043302 132.340277,5.7533703 133.22116,5.7533703 C134.0201,5.7533703 134.829271,5.809705 135.648697,5.92237608 C136.468123,6.03504717 137.215838,6.25526462 137.891865,6.58303504 C138.567891,6.91080546 139.120996,7.36660437 139.551194,7.95044543 C139.981393,8.5342865 140.196489,9.30760824 140.196489,10.2704339 L140.196489,18.5363529 C140.196489,19.2533507 140.23746,19.9396097 140.319402,20.5951505 C140.401345,21.2506914 140.544742,21.7423396 140.749599,22.0701101 L136.32472,22.0701101 C136.242778,21.8242823 136.1762,21.5733368 136.124986,21.3172661 C136.073772,21.0611955 136.037923,20.8000074 136.017437,20.5336939 C135.320925,21.2506917 134.501511,21.7525826 133.559171,22.0393817 C132.616831,22.3261809 131.65402,22.4695783 130.670709,22.4695783 C129.91274,22.4695783 129.205995,22.3773942 128.550454,22.1930234 C127.894914,22.0086525 127.321324,21.7218577 126.829668,21.3326303 C126.338013,20.9434029 125.953912,20.4517547 125.677356,19.8576708 C125.4008,19.2635869 125.262524,18.5568425 125.262524,17.7374165 C125.262524,16.8360478 125.421285,16.0934541 125.738813,15.509613 C126.05634,14.9257719 126.466047,14.4597304 126.967946,14.1114743 C127.469844,13.7632182 128.043434,13.5020301 128.688732,13.327902 C129.33403,13.153774 129.98444,13.0154979 130.63998,12.9130697 C131.295521,12.8106414 131.94081,12.7287 132.575865,12.6672431 C133.21092,12.6057861 133.774267,12.5136021 134.265923,12.3906882 C134.757578,12.2677743 135.1468,12.0885275 135.433599,11.8529425 C135.720398,11.6173575 135.853553,11.274228 135.833067,10.8235437 C135.833067,10.3523737 135.756247,9.97851616 135.602605,9.70195987 C135.448962,9.42540358 135.244109,9.21030746 134.988038,9.05666508 C134.731968,8.90302269 134.43493,8.80059597 134.096917,8.74938184 C133.758904,8.69816771 133.395289,8.67256103 133.006061,8.67256103 C132.145664,8.67256103 131.469648,8.85692913 130.977992,9.22567086 C130.486336,9.59441258 130.199542,10.2089729 130.117599,11.0693703 L125.754177,11.0693703 Z M135.833067,14.2958442 C135.648696,14.4597294 135.418236,14.5877628 135.14168,14.6799483 C134.865124,14.7721337 134.568086,14.8489537 134.250558,14.9104107 C133.933031,14.9718677 133.600144,15.023081 133.251888,15.0640523 C132.903632,15.1050236 132.555381,15.156237 132.207125,15.2176939 C131.879354,15.2791509 131.55671,15.3610923 131.239183,15.4635205 C130.921655,15.5659488 130.645103,15.7042249 130.409518,15.8783529 C130.173933,16.0524809 129.984444,16.2726984 129.841044,16.5390118 C129.697644,16.8053253 129.625946,17.1433335 129.625946,17.5530465 C129.625946,17.9422739 129.697644,18.2700394 129.841044,18.5363529 C129.984444,18.8026663 130.179054,19.0126411 130.424882,19.1662835 C130.67071,19.3199259 130.957505,19.4274739 131.285275,19.4889309 C131.613046,19.5503879 131.951054,19.5811159 132.29931,19.5811159 C133.159707,19.5811159 133.825481,19.4377185 134.296651,19.1509193 C134.767821,18.8641202 135.116072,18.5209907 135.341414,18.1215205 C135.566756,17.7220503 135.705032,17.3174648 135.756246,16.9077517 C135.80746,16.4980387 135.833067,16.1702732 135.833067,15.9244454 L135.833067,14.2958442 Z M143.402147,6.18356683 L147.519742,6.18356683 L147.519742,8.33454948 L147.581199,8.33454948 C148.154797,7.51512342 148.846178,6.88007775 149.655361,6.42939342 C150.464544,5.97870909 151.391506,5.7533703 152.436274,5.7533703 C153.440071,5.7533703 154.35679,5.94798107 155.186459,6.33720845 C156.016128,6.72643583 156.646052,7.41269486 157.076251,8.39600612 C157.547421,7.69949398 158.187588,7.08493365 158.996771,6.55230671 C159.805954,6.01967978 160.763644,5.7533703 161.869869,5.7533703 C162.709781,5.7533703 163.488224,5.85579702 164.205222,6.06065354 C164.92222,6.26551005 165.53678,6.59327556 166.048921,7.04395989 C166.561063,7.49464422 166.960527,8.08359786 167.247326,8.81083849 C167.534125,9.53807912 167.677523,10.4138276 167.677523,11.4381101 L167.677523,22.0701101 L163.314101,22.0701101 L163.314101,13.0667113 C163.314101,12.5340844 163.293615,12.0321934 163.252644,11.5610234 C163.211673,11.0898535 163.099003,10.6801466 162.914632,10.3318905 C162.730262,9.98363443 162.458831,9.70708228 162.100332,9.50222577 C161.741833,9.29736925 161.255306,9.19494253 160.640737,9.19494253 C160.026167,9.19494253 159.529397,9.31273326 159.150413,9.54831825 C158.771428,9.78390324 158.474391,10.0911834 158.259291,10.470168 C158.044192,10.8491525 157.900795,11.2793447 157.829095,11.7607575 C157.757395,12.2421704 157.721546,12.7286973 157.721546,13.2203529 L157.721546,22.0701101 L153.358124,22.0701101 L153.358124,13.1588963 C153.358124,12.6877263 153.347881,12.2216847 153.327396,11.7607575 C153.30691,11.2998304 153.219847,10.8747595 153.066205,10.4855321 C152.912562,10.0963047 152.656496,9.78390324 152.297997,9.54831825 C151.939498,9.31273326 151.412,9.19494253 150.715488,9.19494253 C150.510632,9.19494253 150.239201,9.24103456 149.901187,9.33321999 C149.563174,9.42540542 149.235409,9.59953085 148.917881,9.85560149 C148.600353,10.1116721 148.328923,10.4804083 148.103581,10.9618211 C147.878238,11.4432339 147.765569,12.0731583 147.765569,12.851613 L147.765569,22.0701101 L143.402147,22.0701101 L143.402147,6.18356683 Z" id="fnstream" fill-rule="nonzero"></path>
            <path d="M18.7990792,6.57781702 L18.7957614,6.57781702 C18.7976132,6.62255429 18.7990792,6.66745134 18.7990792,6.71266794 C18.7990792,8.2437212 17.7050427,9.50970612 16.2823863,9.71973164 L16.2823863,9.75088795 L5.92974104,9.75088795 C5.20082061,9.75088795 4.48231664,9.93039626 3.83364151,10.2747934 L3.00348856,10.7153756 L3.00348856,6.40725617 L3.00750083,6.40725617 C3.00487742,6.35437032 3.00348856,6.30116492 3.00348856,6.24763997 C3.00348856,4.71658671 4.09744789,3.45060179 5.52018143,3.24057628 L5.52018143,3.23426513 L5.5683286,3.23426513 C5.68946813,3.21852719 5.81253662,3.20941996 5.93776557,3.20941996 C6.06299451,3.20941996 6.18614017,3.21852719 6.30720253,3.23426513 L18.7990792,3.23426513 L18.7990792,6.57781702 Z M9.29155568,17.1095302 L9.26130938,17.1095302 C9.06247081,18.5439189 7.89127539,19.6522849 6.46136607,19.6964629 L6.46136607,19.6988596 L2.9476255,19.6988596 L2.9476255,15.7019837 L2.97764032,15.7019837 C3.17956525,14.2369179 4.39582148,13.1104174 5.86662503,13.1104174 C5.89640838,13.1104174 5.92588309,13.1117755 5.95543496,13.1127342 L9.29155568,13.1127342 L9.29155568,17.1095302 Z M5.52673994,3.37507799e-13 L5.52673994,0.00375473536 C2.57733979,0.0793287705 0.187496203,2.48555492 0.0114966808,5.51171184 L-7.10542736e-14,5.51171184 L-7.10542736e-14,22.7984335 L7.36852363,22.7984335 L7.36852363,22.7247768 C9.8558961,22.3159101 11.8031561,20.2323515 12.1009124,17.6248876 L12.1420381,17.6248876 L12.1420381,12.9305896 L17.0839905,12.9305896 L17.0839905,12.8476659 C19.7644918,12.3811999 21.8071973,9.9686626 21.8071973,7.06081979 L21.8071973,3.37507799e-13 L5.52673994,3.37507799e-13 L5.52673994,3.37507799e-13 Z" id="logo"></path>
        </g>
    </g>
</svg>